<?xml version="1.0" standalone="no"?>
<!DOCTYPE svg PUBLIC "-//W3C//DTD SVG 20010904//EN"
 "http://www.w3.org/TR/2001/REC-SVG-20010904/DTD/svg10.dtd">
<svg version="1.0" xmlns="http://www.w3.org/2000/svg"
 width="700.000000pt" height="700.000000pt" viewBox="0 0 700.000000 700.000000"
 preserveAspectRatio="xMidYMid meet">
<metadata>
Created by potrace 1.14, written by Peter Selinger 2001-2017
</metadata>
<g transform="translate(0.000000,700.000000) scale(0.100000,-0.100000)"
fill="#000000" stroke="none">
<path d="M3280 6993 c-210 -20 -270 -27 -370 -44 -1179 -200 -2177 -993 -2638
-2095 -270 -644 -340 -1360 -201 -2049 251 -1246 1150 -2249 2364 -2639 355
-114 672 -161 1075 -160 293 0 431 13 685 65 1056 212 1944 890 2430 1854 192
381 304 760 357 1210 17 145 17 576 0 730 -90 810 -438 1539 -1007 2110 -661
663 -1561 1032 -2495 1023 -91 -1 -181 -3 -200 -5z m421 -513 c412 -32 759
-129 1130 -315 826 -415 1412 -1179 1594 -2081 78 -383 77 -812 -1 -1193 -93
-454 -312 -917 -607 -1283 -469 -585 -1198 -980 -1978 -1074 -158 -19 -485
-21 -639 -5 -500 55 -957 219 -1366 492 -315 210 -611 508 -828 833 -493 737
-633 1677 -376 2516 297 968 1043 1710 2015 2004 197 60 351 87 630 109 94 8
301 6 426 -3z"/>
<path d="M3320 6163 c-98 -6 -282 -33 -400 -59 -743 -165 -1375 -643 -1760
-1332 -290 -519 -391 -1116 -289 -1712 47 -274 121 -502 245 -750 266 -531
666 -932 1194 -1196 554 -277 1143 -359 1726 -239 155 32 364 99 522 166 481
206 863 525 1159 969 227 340 360 686 425 1105 28 187 31 541 5 720 -109 744
-478 1368 -1072 1810 -506 377 -1117 557 -1755 518z m1425 -1084 c56 -15 104
-54 126 -103 18 -39 19 -96 19 -1489 0 -1572 3 -1485 -53 -1546 -29 -31 -94
-61 -135 -61 -18 0 -57 11 -85 25 -48 22 -114 98 -897 1032 -465 554 -930
1109 -1035 1233 l-190 225 -5 -1205 c-5 -1322 -1 -1230 -63 -1289 -79 -73
-244 -9 -276 106 -14 51 -15 2894 -1 2942 11 39 51 86 92 107 16 8 56 14 96
14 56 0 75 -4 101 -22 17 -13 479 -558 1027 -1213 548 -655 1009 -1203 1025
-1220 l29 -30 0 1178 c0 978 2 1183 14 1210 18 43 65 85 112 102 48 17 50 17
99 4z"/>
</g>
</svg>
