<?xml version="1.0" encoding="utf-8"?>
<svg xmlns="http://www.w3.org/2000/svg" viewBox="0 0 340 340">
  <defs>
    <path d="M.076.107h166.018v138.968H.076z" id="a"/>
    <path d="M.076.107H139.94v128.334H.076z" id="f"/>
    <path d="M110.753 62.353H28.522v-8.089h35.585l-35.585-25.49V.107l41.115 31.798L110.753.107v28.668l-35.584 25.49h35.584v8.089" id="c"/>
    <path d="m24.09 97.774 21.975-22.729H34.233L9.59 101.088V75.045H0v52.761h9.59v-15.301l7.942-8.168 17.805 23.469H46.97L24.09 97.774" id="d"/>
    <path d="M60.079 84.181h10.413c3.35 0 6.056.772 8.043 2.295 1.966 1.505 2.962 3.785 2.962 6.773v.16c0 2.645-.989 4.841-2.936 6.531-1.97 1.687-4.685 2.542-8.068 2.542H60.079V84.181zm29.682 1.585a16.091 16.091 0 0 0-3.976-5.561c-1.72-1.54-3.839-2.735-6.297-3.555-2.43-.818-5.207-1.23-8.256-1.23h-20.66v52.293h9.507v-16.699h10.12c2.893 0 5.631-.386 8.135-1.144 2.521-.768 4.764-1.92 6.661-3.42 1.888-1.477 3.405-3.354 4.505-5.579 1.096-2.232 1.654-4.847 1.654-7.77v-.146c0-2.637-.469-5.057-1.393-7.187z" id="e"/>
    <path d="M130.419 75.253v30.129c0 4.735-1.154 8.334-3.432 10.702-2.281 2.381-5.458 3.588-9.446 3.588-4.037 0-7.236-1.256-9.509-3.732-2.283-2.473-3.442-6.148-3.442-10.922V75.253h-9.523v30.129c0 3.749.53 7.109 1.575 9.986 1.04 2.847 2.553 5.281 4.499 7.236 1.956 1.952 4.33 3.431 7.056 4.395 2.703.956 5.797 1.443 9.197 1.443 3.443 0 6.575-.486 9.314-1.443 2.748-.968 5.134-2.46 7.09-4.438 1.922-1.941 3.448-4.425 4.541-7.388 1.063-2.915 1.601-6.359 1.601-10.237V75.253h-9.521" id="g"/>
  </defs>
  <g fill-rule="evenodd" transform="translate(0 100)">
    <mask fill="#fff" id="b">
      <use href="#a"/>
    </mask>
    <path d="M165.08 139.075h.756V64.058h-.756z" fill="#343534" mask="url(#b)"/>
    <use fill="#78242f" href="#c" mask="url(#b)"/>
    <g fill="#343534">
      <use href="#d" mask="url(#b)"/>
      <use href="#e"/>
    </g>
    <mask fill="#fff" id="h">
      <use href="#f"/>
    </mask>
    <use fill="#343534" href="#g" mask="url(#h)"/>
    <use fill="#78242f" href="#c" mask="url(#h)"/>
    <g fill="#343534">
      <use href="#d" mask="url(#h)"/>
      <use href="#e"/>
      <use href="#g"/>
      <path d="M190.983 72.174h2.639v6.859l6.708-6.859h3.25l-6.014 6.013 6.437 9.053h-3.292l-4.938-7.196-2.151 2.132v5.064h-2.639V72.174m14.054 0h2.681l2.723 11.522h.042l3.038-11.522h2.701l2.953 11.522h.042l2.807-11.522h2.681l-4.158 15.066h-2.679l-3.018-11.521h-.042l-3.08 11.521h-2.721l-3.968-15.066m24.121 9.074h4.6l-2.256-6.479h-.064l-2.279 6.479zm.928-9.074h2.805l5.803 15.066h-2.827l-1.413-3.988h-6.013l-1.413 3.988h-2.723l5.781-15.066zm10.535 0h2.785l6.879 11.1h.042v-11.1h2.51V87.24h-2.785l-6.857-11.077h-.064V87.24h-2.51V72.174m14.318 0h12.195v2.279h-4.791V87.24h-2.636V74.453h-4.769v-2.279m14.33 0h2.636v12.788h7.661v2.278H269.27V72.174m12.449 0h10.846v2.279h-8.208v3.945h7.596v2.153h-7.596v4.41h8.356v2.278H281.72V72.174m13.694 0h2.786l6.878 11.1h.042v-11.1h2.511V87.24h-2.785l-6.857-11.077h-.062V87.24h-2.512V72.174m-101.793 29.199h3.861c1.182 0 2.636-.591 2.636-2.49 0-1.983-1.202-2.491-2.595-2.491h-3.902v4.98zm-2.639-7.132h6.646c4.305 0 5.127 2.786 5.127 4.663 0 1.857-.821 4.642-5.127 4.621h-4.007v5.781h-2.639V94.241zm16.323 7.533c0 2.891 1.35 5.739 4.579 5.739s4.578-2.849 4.578-5.739-1.35-5.739-4.578-5.739-4.579 2.849-4.579 5.739zm11.794 0c0 4.305-2.7 7.89-7.215 7.89s-7.218-3.585-7.218-7.89 2.701-7.891 7.218-7.891 7.215 3.587 7.215 7.891zm2.861-7.533h2.639v12.788h7.66v2.278h-10.298V94.241m14.371 9.157-5.655-9.157h3.06l3.987 6.753 3.925-6.753h2.954l-5.634 9.157v5.909h-2.637v-5.909m9.563-9.157h12.195v2.279h-4.788v12.786h-2.64V96.52h-4.768v-2.279m14.33 0h10.846v2.279h-8.207v3.946h7.595v2.152h-7.595v4.41h8.355v2.278h-10.993V94.241m23.655 4.79c-.443-1.731-1.56-2.996-3.757-2.996-3.228 0-4.577 2.849-4.577 5.739s1.349 5.739 4.577 5.739c2.343 0 3.63-1.751 3.842-3.946h2.572c-.21 3.608-2.763 6.097-6.414 6.097-4.516 0-7.215-3.585-7.215-7.89s2.7-7.891 7.215-7.891c3.397.02 6.078 1.9 6.395 5.148h-2.639m5.479-4.79h2.637v5.994h6.857v-5.994h2.639v15.066h-2.639v-6.794h-6.857v6.794h-2.637V94.241m15.69 0h2.785l6.879 11.1h.043v-11.1h2.51v15.066h-2.785l-6.857-11.077h-.064v11.077h-2.511V94.241m15.801 15.065h2.637V94.241h-2.637zM337.313 99.031c-.442-1.731-1.56-2.996-3.755-2.996-3.228 0-4.579 2.849-4.579 5.739s1.351 5.739 4.579 5.739c2.342 0 3.629-1.751 3.841-3.946h2.574c-.21 3.608-2.765 6.097-6.414 6.097-4.516 0-7.216-3.585-7.216-7.89s2.701-7.891 7.216-7.891c3.397.02 6.077 1.9 6.394 5.148h-2.639m-146.331 17.277h2.637v8.779c0 2.025.126 4.367 3.544 4.367s3.545-2.342 3.545-4.367v-8.779h2.637v9.644c0 3.861-2.468 5.78-6.182 5.78s-6.181-1.919-6.181-5.78v-9.644m15.822 0h2.786l6.878 11.1h.042v-11.1h2.511v15.066h-2.786l-6.856-11.077h-.064v11.077h-2.511v-15.066m15.802 15.065h2.639v-15.066h-2.639zm4.633-15.065h2.743l3.777 11.922h.042l3.862-11.922h2.679l-5.148 15.066h-2.934l-5.021-15.066m15.113 0h10.846v2.279h-8.21v3.946h7.596v2.152h-7.596v4.41h8.357v2.278h-10.993v-15.066m16.383 6.859h4.326c1.667 0 2.575-.823 2.575-2.405 0-1.92-1.244-2.301-2.617-2.301h-4.284v4.707zm-2.636-6.859h7.193c3.292 0 4.982 1.519 4.982 4.074 0 2.891-2.007 3.629-2.491 3.797v.042c.907.126 2.236.802 2.236 3.187 0 1.751.255 3.354.824 3.965h-2.828c-.4-.655-.4-1.476-.4-2.214 0-2.765-.572-3.988-2.998-3.988h-3.883v6.203H256.1v-15.066zm17.06 10.045c0 2.32 1.71 3.228 3.82 3.228 2.32 0 3.186-1.14 3.186-2.278 0-1.161-.633-1.626-1.244-1.857-1.056-.401-2.427-.676-4.495-1.247-2.575-.697-3.334-2.256-3.334-3.818 0-3.018 2.785-4.431 5.507-4.431 3.143 0 5.781 1.667 5.781 4.811h-2.639c-.126-1.941-1.435-2.659-3.248-2.659-1.224 0-2.765.443-2.765 1.962 0 1.054.717 1.645 1.793 1.942l4.347 1.16c1.984.591 2.934 2.279 2.934 3.839 0 3.377-2.998 4.726-5.993 4.726-3.439 0-6.226-1.645-6.289-5.379h2.637m12.476 5.022h2.637v-15.066h-2.637zm4.759-15.065h12.195v2.279h-4.789v12.786h-2.637v-12.786h-4.769v-2.279m19.143 9.157-5.655-9.157h3.06l3.987 6.753 3.926-6.753h2.953l-5.635 9.157v5.909h-2.636v-5.909"/>
    </g>
  </g>
</svg>