<?xml version="1.0" encoding="utf-8"?>
<svg xmlns="http://www.w3.org/2000/svg" fill="#013c6d" viewBox="0 0 340 340">
  <path d="M47.605 144.144c-9.485-8.563-10.205-11.777.559-23.736 8.016-8.907 5.707-17.078 4.223-22.567 5.881 4.144 9.453 8.119 9.907 13.514.158 1.851.239 4.079-.342 6.217-.93 3.392-2.975 6.651-4.841 8.558-5.253 5.379-8.628 10.031-9.31 13.21-.166.774-.248 1.649-.289 2.428-.057 1.065.093 2.376.093 2.376m-8.774-10.901c-6.091-7.24-7.612-11.811-2.497-17.061 3.383-3.479 2.566-8.424-.292-11.681 10.551 4.702 13.068 12.326 8.152 17.76-2.506 2.767-4.055 4.974-4.759 7.126a11.68 11.68 0 0 0-.515 2.27c-.143 1.014-.089 1.586-.089 1.586"/>
  <path d="M53.721 153.458c-5.843-8.252-7.267-14.995 4.783-25.524 3.078-2.69 5.614-5.079 7.138-7.751 2.93-5.126 3.052-10.339 2.494-14.04 5.367 4.848 5.985 9.366 5.821 14.777-.056 1.859-.617 3.864-1.441 5.912-1.309 3.253-3.918 6.099-5.782 7.895-2.451 2.368-6.205 5.202-8.036 7.728-4.235 5.837-4.977 11.004-4.977 11.004m-9.415 6.643C34.008 144.826 7.75 144.473 7.75 144.473L0 130.997c34.626 2.161 41.435 14.842 44.306 29.106"/>
  <path d="M62.325 160.102c10.297-15.277 36.556-15.629 36.556-15.629l7.747-13.476c-34.621 2.161-41.431 14.845-44.303 29.106M51.926 242.24c-3.972-88.051-7.341-89.364-43.487-95.649 26.103 8.725 28.327 36.705 32.374 95.649h11.113"/>
  <path d="M54.762 242.24h11.109c4.051-58.944 6.272-86.924 32.382-95.649-36.15 6.285-39.516 7.598-43.491 95.649m76.663-107.365v24.173h-4.245v-24.173h-7.704v-3.809h19.651v3.809h-7.702m23.073 0h-6.289v8.767h6.289c2.83 0 4.755-1.612 4.755-4.362s-1.925-4.405-4.755-4.405zm4.913 24.173-5.896-11.79h-5.306v11.79h-4.244v-27.982h10.847c5.305 0 8.685 3.419 8.685 8.174 0 4.01-2.436 6.564-5.579 7.427l6.445 12.382h-4.952zm10.3 0h4.245v-27.982h-4.245zm28.734 0-12.933-19.692v19.692h-4.241v-27.982h3.887l12.934 19.653v-19.653h4.243v27.982h-3.89m11.205 0h4.243v-27.982h-4.243zm21.028-24.173v24.173h-4.247v-24.173h-7.703v-3.809h19.65v3.809h-7.701m21.698 12.658v11.515h-4.245v-11.515l-8.372-16.467h4.641l5.855 12.301 5.855-12.301h4.637l-8.37 16.467m-104.804 53.006h-3.695l-5.697-19.61-5.662 19.61h-3.691l-7.31-27.982h4.477l4.876 20.006 5.62-20.006h3.419l5.619 20.006 4.873-20.006h4.485l-7.314 27.982m11.4 0v-27.982h17.888v3.811h-13.641v8.175h11.634v3.772h-11.634v8.413h13.641v3.812h-17.888m31.132.232c-4.205 0-7.232-.979-9.902-3.69l2.829-2.795c2.044 2.048 4.283 2.676 7.151 2.676 3.658 0 5.777-1.573 5.777-4.284 0-1.219-.351-2.239-1.097-2.908-.708-.668-1.415-.943-3.068-1.179l-3.301-.472c-2.28-.314-4.086-1.099-5.305-2.243-1.375-1.294-2.044-3.062-2.044-5.341 0-4.873 3.537-8.214 9.356-8.214 3.694 0 6.288.942 8.684 3.182l-2.708 2.673c-1.732-1.652-3.733-2.163-6.094-2.163-3.302 0-5.11 1.886-5.11 4.365 0 1.021.314 1.925 1.061 2.594.708.628 1.847 1.101 3.144 1.297l3.184.47c2.594.393 4.047 1.022 5.226 2.086 1.536 1.333 2.283 3.339 2.283 5.738 0 5.148-4.21 8.21-10.065 8.21m25.239-24.407v24.172h-4.247v-24.172h-7.703v-3.811h19.653v3.811h-7.703m12.536 24.172v-27.982h17.884v3.811h-13.635v8.175h11.631v3.772h-11.631v8.413h13.635v3.812H227.88m34.235-24.173h-6.285v8.764h6.285c2.833 0 4.76-1.608 4.76-4.361s-1.927-4.403-4.76-4.403zm4.916 24.172-5.896-11.789h-5.305v11.789h-4.24v-27.982h10.845c5.305 0 8.681 3.418 8.681 8.173 0 4.009-2.435 6.566-5.582 7.428l6.451 12.382h-4.953zM294.506 200.539l-12.932-19.692v19.692h-4.243v-27.982h3.889l12.93 19.654v-19.654h4.247v27.982h-3.891m-157.39 41.73c-5.702 0-10.025-3.891-10.025-9.672V214.05h4.244v18.351c0 3.734 2.281 6.055 5.781 6.055 3.493 0 5.815-2.32 5.815-6.055V214.05h4.245v18.546c0 5.781-4.365 9.672-10.06 9.672m34.117-.235-12.932-19.693v19.693h-4.244V214.05h3.889l12.933 19.65v-19.65h4.245v27.982h-3.891m11.204.001h4.244V214.05h-4.244zm20.597 0h-3.304l-9.199-27.982h4.405l6.446 20.356 6.446-20.356h4.48l-9.275 27.982m13.126 0V214.05h17.882v3.809h-13.633v8.175h11.633v3.772h-11.633v8.41h13.633v3.816h-17.882m34.239-24.172h-6.288v8.764h6.288c2.828 0 4.755-1.611 4.755-4.361s-1.927-4.403-4.755-4.403zm4.913 24.173-5.898-11.793h-5.304v11.793h-4.244V214.05h10.845c5.309 0 8.688 3.416 8.688 8.169 0 4.012-2.436 6.568-5.582 7.432l6.446 12.382h-4.951zm17.728.236c-4.205 0-7.232-.983-9.903-3.694l2.829-2.794c2.043 2.044 4.283 2.674 7.154 2.674 3.658 0 5.776-1.575 5.776-4.284 0-1.221-.354-2.241-1.101-2.911-.706-.665-1.414-.942-3.065-1.176l-3.302-.473c-2.276-.313-4.084-1.099-5.302-2.241-1.377-1.297-2.045-3.062-2.045-5.345 0-4.874 3.536-8.214 9.353-8.214 3.697 0 6.284.944 8.688 3.186l-2.715 2.671c-1.728-1.65-3.729-2.161-6.088-2.161-3.302 0-5.112 1.886-5.112 4.362 0 1.023.314 1.927 1.062 2.594.704.63 1.847 1.105 3.144 1.298l3.182.471c2.597.393 4.052 1.019 5.228 2.083 1.532 1.337 2.281 3.34 2.281 5.741 0 5.148-4.208 8.214-10.064 8.214m15.766-.237h4.243V214.05h-4.243zm21.027-24.173v24.173h-4.243V217.86h-7.703v-3.809h19.649v3.809h-7.703m21.698 24.173h-4.244v-11.518l-8.372-16.465h4.636l5.857 12.299 5.855-12.299h4.641l-8.372 16.465z"/>
</svg>